<svg width="100" height="100" viewBox="0 0 100 100" fill="none" xmlns="http://www.w3.org/2000/svg">
<path d="M16.7535 83.2501C15.6819 82.1806 15.1461 80.8196 15.1461 79.1668C15.1461 77.5141 15.6819 76.153 16.7535 75.0836L21.5754 70.2713C19.5297 67.4519 17.9224 64.3176 16.7535 60.8682C15.5845 57.415 15 53.7926 15 50.001C15 40.2791 18.4095 31.9921 25.2285 25.1401C32.0474 18.2842 40.3276 14.9048 50.069 15.002H84.9919V50.001C85.1868 59.723 81.8513 67.9866 74.9856 74.792C68.1159 81.5973 59.8104 85 50.069 85C46.2699 85 42.6402 84.4167 39.1801 83.2501C35.7238 82.0834 32.5832 80.4793 29.7582 78.4377L24.9362 83.2501C23.8647 84.3195 22.5009 84.8542 20.8448 84.8542C19.1888 84.8542 17.825 84.3195 16.7535 83.2501ZM50.069 73.3337C56.5958 73.3337 62.1484 71.049 66.7268 66.4797C71.3053 61.9104 73.4971 56.4175 73.3023 50.001V26.6684H50.069C43.6397 26.5711 38.1358 28.8072 33.5574 33.3765C28.9789 37.9458 26.6897 43.4873 26.6897 50.001C26.6897 52.2371 26.9566 54.3506 27.4904 56.3417C28.0281 58.3366 28.8328 60.209 29.9043 61.959L45.9776 45.9178C47.0492 44.8484 48.413 44.3137 50.069 44.3137C51.7251 44.3137 53.0889 44.8484 54.1604 45.9178C55.232 46.9872 55.7677 48.3483 55.7677 50.001C55.7677 51.6537 55.232 53.0148 54.1604 54.0842L38.0871 70.1254C39.8406 71.1949 41.7168 71.9979 43.7157 72.5345C45.7107 73.0673 47.8285 73.3337 50.069 73.3337Z" fill="#0F059C"/>
</svg>
